<?xml version="1.0" encoding="UTF-8" standalone="no"?>
<!DOCTYPE svg PUBLIC "-//W3C//DTD SVG 1.1//EN" "http://www.w3.org/Graphics/SVG/1.1/DTD/svg11.dtd">
<svg width="100%" height="100%" viewBox="0 0 1901 990" version="1.1" xmlns="http://www.w3.org/2000/svg" xmlns:xlink="http://www.w3.org/1999/xlink" xml:space="preserve" xmlns:serif="http://www.serif.com/" style="fill-rule:evenodd;clip-rule:evenodd;stroke-linejoin:round;stroke-miterlimit:2;">
    <g transform="matrix(1,0,0,1,-167.305,-325.537)">
        <path d="M611.277,890.281C557.13,915.751 488.998,955.068 425.554,1002.46C369.964,1043.98 317.982,1091.68 281.983,1141.47C252.074,1182.83 233.185,1225.75 231.435,1267.83C231.069,1276.64 233.896,1282.39 237.7,1285.91C241.184,1289.13 245.914,1291.06 252.112,1290.77C260.716,1290.36 274.776,1284.07 292.453,1271.4C361.275,1222.1 500.293,1074.52 623.08,910.376C649.054,898.269 671.518,889.583 688.178,885.053C692.952,883.755 698.319,882.05 702.383,881.122C695.7,895.551 688.305,906.832 677.372,919.331C664.216,934.37 646.187,951.064 618.885,976.283C613.639,981.138 613.096,985.481 613.052,986.977C612.93,991.129 614.577,994.196 617.361,996.463C619.033,997.825 621.814,999.489 626.17,999.107C627.812,998.963 631.598,997.92 636.715,995.495C650.54,988.939 681.079,971.3 703.693,957.768C703.116,958.876 702.665,959.905 702.351,960.836C700.32,966.85 701.625,971.52 704.246,974.692C706.064,976.892 708.768,978.942 713.117,979.566C715.939,979.972 720.352,979.803 726.587,978.036C734.222,975.873 745.809,971.233 762.516,963.17C840.581,924.929 927.426,905.166 1000.54,902.084C1073.54,899.006 1132.85,912.565 1156.29,941.813C1134.03,910.946 1074.56,893.992 1000.39,893.588C925.495,893.18 835.841,909.848 754.299,945.412C746.147,949.02 739.312,951.82 733.635,953.927C742.854,944.136 754.234,933.539 759.253,927.757C763.129,923.29 764.319,919.311 764.468,917.602C764.936,912.251 762.54,908.792 758.679,906.587C757.09,905.68 752.633,903.788 745.477,906.874C740.727,908.923 730.956,914.468 714,925.089C708.989,928.242 700.606,933.314 690.849,939.081C692.231,937.586 693.561,936.107 694.846,934.644C708.833,918.713 717.756,904.506 726.158,885.069C728.871,878.795 728.546,873.698 727.069,869.874C725.328,865.366 721.811,861.669 715.818,859.751C710.421,858.023 701.188,858.009 688.902,860.794C678.578,863.134 665.475,867.389 650.281,873.351C726.127,768.246 792.907,658.991 828.961,566.413C855.058,499.4 864.889,440.745 852.012,398.03C845.436,376.263 833.774,363.153 819.07,356.958C804.781,350.938 787.117,351.444 767.294,358.445C720.557,374.95 659.755,428.507 605.37,502.593C580.952,535.856 557.572,573.136 537.683,613.102C529.474,629.595 521.923,646.566 515.044,663.843C497.835,707.063 484.848,752.165 478.036,797.291C471.006,843.86 470.655,890.367 478.867,934.823C469.7,861.819 484.234,784.769 511.502,711.591C522.071,683.225 534.564,655.481 548.3,628.722C557.595,610.614 567.377,592.926 577.679,575.914C632.124,486.01 699.64,414.345 754.124,385.373C776.65,373.395 796.433,368.551 811.434,374.958C821.459,379.24 828.643,388.809 833.062,403.704C842.807,436.474 837.1,479.275 821.06,528.276C794.98,607.949 741.261,703.253 676.626,798.611C655.793,829.347 633.823,860.086 611.277,890.281ZM579.262,932.337C518.99,964.518 448.738,1009.76 388.786,1061.56C316.095,1124.36 258.006,1196.5 254.145,1267.24C256.387,1266.52 259.448,1265.41 261.928,1264.1C269.154,1260.3 277.892,1254.41 287.941,1246.7C353.188,1196.69 469.966,1073.16 579.262,932.337ZM706.469,880.454C707.277,881.769 708.351,883.143 708.722,881.977C709.104,880.778 708.194,880.369 706.469,880.454Z"/>
    </g>
    <g transform="matrix(1,0,0,1,-167.305,-325.537)">
        <path d="M1295.04,1023.64C1291.12,1029.79 1287.8,1035.49 1285.95,1039.93C1282.66,1047.83 1283.48,1054.13 1285.37,1057.53C1287.58,1061.51 1291.33,1064.63 1297.94,1064.72C1302.77,1064.78 1313,1061.44 1329.87,1050.68C1339.48,1044.53 1353.36,1035.42 1367.2,1026.44C1363.86,1033.89 1362.14,1040.65 1362.23,1045.34C1362.36,1051.77 1365.06,1056.24 1368.93,1058.99C1371.71,1060.96 1375.48,1062.32 1380.58,1061.82C1384.93,1061.4 1391.49,1059.17 1400.35,1053.61C1444.81,1025.54 1482.28,1008.57 1515.49,998.641C1534.34,993.008 1551.77,989.622 1568.41,987.942C1613.69,983.37 1652.98,991.06 1696.38,997.5C1770.02,1008.43 1854.99,1015.99 1997.32,956.873C1854.24,1008.17 1771,996.652 1698.94,982.587C1654.27,973.867 1613.8,964.3 1566.69,967.442C1548.7,968.642 1529.76,971.711 1509.35,977.449C1474.6,987.214 1435.53,1004.82 1389.15,1033.61L1389.26,1033.38C1394.52,1022.83 1403.24,1010.58 1411.14,1003.62C1416.89,998.543 1419.73,995.203 1420.64,993.689C1424.89,986.594 1421.59,981.692 1419.42,979.323C1417.67,977.414 1414.97,975.494 1410.63,975.497C1408.94,975.498 1403.29,977.095 1395.72,981.447C1377.5,991.931 1337.99,1018.29 1317.52,1031.37L1316.55,1031.99C1325.79,1017.67 1337.97,1001.29 1341.92,993.389C1346.08,985.072 1343.48,978.857 1341.65,976.625C1339.48,973.979 1334.2,969.585 1325,973.967C1321.8,975.495 1316.2,979.205 1307.67,985.997C1253.49,1029.13 1180.44,1068.42 1112.06,1090.71C1057.53,1108.48 1006.11,1115.71 970.409,1104.23C929.223,1090.97 911.458,1054.8 909.928,1007.14C908.194,953.132 927.014,884.954 958.979,815.223C1006.73,711.058 1084.18,603.737 1169.22,534.654C1198.11,511.186 1227.93,492.357 1257.6,479.2C1271.58,473.003 1285.44,467.857 1299.34,464.472C1345.35,452.689 1373.56,465.779 1385.21,486.396C1401.03,514.383 1386.74,553.742 1346.85,561.76C1391.18,557.115 1408.55,513.989 1393.9,481.962C1382.31,456.617 1350.66,437.451 1295.6,447.108C1280.4,449.96 1265.02,454.379 1249.71,460.583C1217.96,473.443 1186.4,493.407 1155.75,517.956C1067.79,588.399 987.906,698.82 938.676,805.902C904.981,879.192 885.817,951.065 887.651,1007.86C889.534,1066.18 913.189,1109.22 963.588,1125.43C1002.72,1138.02 1059.17,1131.32 1118.95,1111.89C1179.11,1092.35 1242.79,1060.19 1295.04,1023.64Z"/>
    </g>
</svg>
